<?xml version="1.0" encoding="utf-8" standalone="no"?>
<!DOCTYPE svg PUBLIC "-//W3C//DTD SVG 1.1//EN"
  "http://www.w3.org/Graphics/SVG/1.1/DTD/svg11.dtd">
<!-- Created with matplotlib (http://matplotlib.org/) -->
<svg height="432pt" version="1.1" viewBox="0 0 576 432" width="576pt" xmlns="http://www.w3.org/2000/svg" xmlns:xlink="http://www.w3.org/1999/xlink">
 <defs>
  <style type="text/css">
*{stroke-linecap:butt;stroke-linejoin:round;stroke-miterlimit:100000;}
  </style>
 </defs>
 <g id="figure_1">
  <g id="patch_1">
   <path d="M 0 432 
L 576 432 
L 576 0 
L 0 0 
z
" style="fill:#ffffff;"/>
  </g>
  <g id="axes_1">
   <g id="LineCollection_1">
    <path clip-path="url(#p18de5f27bd)" d="M 309.763417 90.061068 
L 454.628571 245.721669 
" style="fill:none;stroke:#000000;stroke-width:6.0;"/>
    <path clip-path="url(#p18de5f27bd)" d="M 309.763417 90.061068 
L 135.771429 194.672221 
" style="fill:none;stroke:#000000;stroke-width:6.0;"/>
    <path clip-path="url(#p18de5f27bd)" d="M 454.628571 245.721669 
L 281.021045 350.4 
" style="fill:none;stroke:#000000;stroke-width:6.0;"/>
    <path clip-path="url(#p18de5f27bd)" d="M 135.771429 194.672221 
L 281.021045 350.4 
" style="fill:none;stroke:#000000;stroke-width:6.0;"/>
   </g>
   <g id="text_1">
    <g id="patch_2">
     <path clip-path="url(#p18de5f27bd)" d="M 341.695526 151.348081 
L 412.003656 199.914355 
Q 414.965687 201.960417 417.011749 198.998386 
L 423.612432 189.44275 
Q 425.658494 186.480719 422.696463 184.434657 
L 352.388333 135.868382 
Q 349.426302 133.82232 347.380239 136.784351 
L 340.779557 146.339987 
Q 338.733495 149.302018 341.695526 151.348081 
z
" style="fill:#ffffff;stroke:#ffffff;stroke-linejoin:miter;"/>
    </g>
    <g clip-path="url(#p18de5f27bd)">
     <!-- {'weight': 59} -->
     <defs>
      <path id="BitstreamVeraSans-Roman-20"/>
      <path d="M 17.921875 72.90625 
L 17.921875 45.796875 
L 9.625 45.796875 
L 9.625 72.90625 
z
" id="BitstreamVeraSans-Roman-27"/>
      <path d="M 10.796875 72.90625 
L 49.515625 72.90625 
L 49.515625 64.59375 
L 19.828125 64.59375 
L 19.828125 46.734375 
Q 21.96875 47.46875 24.109375 47.828125 
Q 26.265625 48.1875 28.421875 48.1875 
Q 40.625 48.1875 47.75 41.5 
Q 54.890625 34.8125 54.890625 23.390625 
Q 54.890625 11.625 47.5625 5.09375 
Q 40.234375 -1.421875 26.90625 -1.421875 
Q 22.3125 -1.421875 17.546875 -0.640625 
Q 12.796875 0.140625 7.71875 1.703125 
L 7.71875 11.625 
Q 12.109375 9.234375 16.796875 8.0625 
Q 21.484375 6.890625 26.703125 6.890625 
Q 35.15625 6.890625 40.078125 11.328125 
Q 45.015625 15.765625 45.015625 23.390625 
Q 45.015625 31 40.078125 35.4375 
Q 35.15625 39.890625 26.703125 39.890625 
Q 22.75 39.890625 18.8125 39.015625 
Q 14.890625 38.140625 10.796875 36.28125 
z
" id="BitstreamVeraSans-Roman-35"/>
      <path d="M 12.5 -9.28125 
L 15.921875 -9.28125 
Q 22.75 -9.28125 24.828125 -7.171875 
Q 26.90625 -5.078125 26.90625 1.90625 
L 26.90625 14.015625 
Q 26.90625 21.625 29.09375 25.09375 
Q 31.296875 28.5625 36.71875 29.890625 
Q 31.296875 31.109375 29.09375 34.5625 
Q 26.90625 38.03125 26.90625 45.703125 
L 26.90625 57.8125 
Q 26.90625 64.75 24.828125 66.875 
Q 22.75 69 15.921875 69 
L 12.5 69 
L 12.5 75.984375 
L 15.578125 75.984375 
Q 27.734375 75.984375 31.8125 72.390625 
Q 35.890625 68.796875 35.890625 58.015625 
L 35.890625 46.296875 
Q 35.890625 39.015625 38.515625 36.203125 
Q 41.15625 33.40625 48.09375 33.40625 
L 51.125 33.40625 
L 51.125 26.421875 
L 48.09375 26.421875 
Q 41.15625 26.421875 38.515625 23.578125 
Q 35.890625 20.75 35.890625 13.375 
L 35.890625 1.703125 
Q 35.890625 -9.078125 31.8125 -12.6875 
Q 27.734375 -16.3125 15.578125 -16.3125 
L 12.5 -16.3125 
z
" id="BitstreamVeraSans-Roman-7d"/>
      <path d="M 10.984375 1.515625 
L 10.984375 10.5 
Q 14.703125 8.734375 18.5 7.8125 
Q 22.3125 6.890625 25.984375 6.890625 
Q 35.75 6.890625 40.890625 13.453125 
Q 46.046875 20.015625 46.78125 33.40625 
Q 43.953125 29.203125 39.59375 26.953125 
Q 35.25 24.703125 29.984375 24.703125 
Q 19.046875 24.703125 12.671875 31.3125 
Q 6.296875 37.9375 6.296875 49.421875 
Q 6.296875 60.640625 12.9375 67.421875 
Q 19.578125 74.21875 30.609375 74.21875 
Q 43.265625 74.21875 49.921875 64.515625 
Q 56.59375 54.828125 56.59375 36.375 
Q 56.59375 19.140625 48.40625 8.859375 
Q 40.234375 -1.421875 26.421875 -1.421875 
Q 22.703125 -1.421875 18.890625 -0.6875 
Q 15.09375 0.046875 10.984375 1.515625 
M 30.609375 32.421875 
Q 37.25 32.421875 41.125 36.953125 
Q 45.015625 41.5 45.015625 49.421875 
Q 45.015625 57.28125 41.125 61.84375 
Q 37.25 66.40625 30.609375 66.40625 
Q 23.96875 66.40625 20.09375 61.84375 
Q 16.21875 57.28125 16.21875 49.421875 
Q 16.21875 41.5 20.09375 36.953125 
Q 23.96875 32.421875 30.609375 32.421875 
" id="BitstreamVeraSans-Roman-39"/>
      <path d="M 51.125 -9.28125 
L 51.125 -16.3125 
L 48.09375 -16.3125 
Q 35.9375 -16.3125 31.8125 -12.6875 
Q 27.6875 -9.078125 27.6875 1.703125 
L 27.6875 13.375 
Q 27.6875 20.75 25.046875 23.578125 
Q 22.40625 26.421875 15.484375 26.421875 
L 12.5 26.421875 
L 12.5 33.40625 
L 15.484375 33.40625 
Q 22.46875 33.40625 25.078125 36.203125 
Q 27.6875 39.015625 27.6875 46.296875 
L 27.6875 58.015625 
Q 27.6875 68.796875 31.8125 72.390625 
Q 35.9375 75.984375 48.09375 75.984375 
L 51.125 75.984375 
L 51.125 69 
L 47.796875 69 
Q 40.921875 69 38.8125 66.84375 
Q 36.71875 64.703125 36.71875 57.8125 
L 36.71875 45.703125 
Q 36.71875 38.03125 34.5 34.5625 
Q 32.28125 31.109375 26.90625 29.890625 
Q 32.328125 28.5625 34.515625 25.09375 
Q 36.71875 21.625 36.71875 14.015625 
L 36.71875 1.90625 
Q 36.71875 -4.984375 38.8125 -7.125 
Q 40.921875 -9.28125 47.796875 -9.28125 
z
" id="BitstreamVeraSans-Roman-7b"/>
      <path d="M 11.71875 12.40625 
L 22.015625 12.40625 
L 22.015625 0 
L 11.71875 0 
z
M 11.71875 51.703125 
L 22.015625 51.703125 
L 22.015625 39.3125 
L 11.71875 39.3125 
z
" id="BitstreamVeraSans-Roman-3a"/>
      <path d="M 9.421875 54.6875 
L 18.40625 54.6875 
L 18.40625 0 
L 9.421875 0 
z
M 9.421875 75.984375 
L 18.40625 75.984375 
L 18.40625 64.59375 
L 9.421875 64.59375 
z
" id="BitstreamVeraSans-Roman-69"/>
      <path d="M 54.890625 33.015625 
L 54.890625 0 
L 45.90625 0 
L 45.90625 32.71875 
Q 45.90625 40.484375 42.875 44.328125 
Q 39.84375 48.1875 33.796875 48.1875 
Q 26.515625 48.1875 22.3125 43.546875 
Q 18.109375 38.921875 18.109375 30.90625 
L 18.109375 0 
L 9.078125 0 
L 9.078125 75.984375 
L 18.109375 75.984375 
L 18.109375 46.1875 
Q 21.34375 51.125 25.703125 53.5625 
Q 30.078125 56 35.796875 56 
Q 45.21875 56 50.046875 50.171875 
Q 54.890625 44.34375 54.890625 33.015625 
" id="BitstreamVeraSans-Roman-68"/>
      <path d="M 56.203125 29.59375 
L 56.203125 25.203125 
L 14.890625 25.203125 
Q 15.484375 15.921875 20.484375 11.0625 
Q 25.484375 6.203125 34.421875 6.203125 
Q 39.59375 6.203125 44.453125 7.46875 
Q 49.3125 8.734375 54.109375 11.28125 
L 54.109375 2.78125 
Q 49.265625 0.734375 44.1875 -0.34375 
Q 39.109375 -1.421875 33.890625 -1.421875 
Q 20.796875 -1.421875 13.15625 6.1875 
Q 5.515625 13.8125 5.515625 26.8125 
Q 5.515625 40.234375 12.765625 48.109375 
Q 20.015625 56 32.328125 56 
Q 43.359375 56 49.78125 48.890625 
Q 56.203125 41.796875 56.203125 29.59375 
M 47.21875 32.234375 
Q 47.125 39.59375 43.09375 43.984375 
Q 39.0625 48.390625 32.421875 48.390625 
Q 24.90625 48.390625 20.390625 44.140625 
Q 15.875 39.890625 15.1875 32.171875 
z
" id="BitstreamVeraSans-Roman-65"/>
      <path d="M 4.203125 54.6875 
L 13.1875 54.6875 
L 24.421875 12.015625 
L 35.59375 54.6875 
L 46.1875 54.6875 
L 57.421875 12.015625 
L 68.609375 54.6875 
L 77.59375 54.6875 
L 63.28125 0 
L 52.6875 0 
L 40.921875 44.828125 
L 29.109375 0 
L 18.5 0 
z
" id="BitstreamVeraSans-Roman-77"/>
      <path d="M 45.40625 27.984375 
Q 45.40625 37.75 41.375 43.109375 
Q 37.359375 48.484375 30.078125 48.484375 
Q 22.859375 48.484375 18.828125 43.109375 
Q 14.796875 37.75 14.796875 27.984375 
Q 14.796875 18.265625 18.828125 12.890625 
Q 22.859375 7.515625 30.078125 7.515625 
Q 37.359375 7.515625 41.375 12.890625 
Q 45.40625 18.265625 45.40625 27.984375 
M 54.390625 6.78125 
Q 54.390625 -7.171875 48.1875 -13.984375 
Q 42 -20.796875 29.203125 -20.796875 
Q 24.46875 -20.796875 20.265625 -20.09375 
Q 16.0625 -19.390625 12.109375 -17.921875 
L 12.109375 -9.1875 
Q 16.0625 -11.328125 19.921875 -12.34375 
Q 23.78125 -13.375 27.78125 -13.375 
Q 36.625 -13.375 41.015625 -8.765625 
Q 45.40625 -4.15625 45.40625 5.171875 
L 45.40625 9.625 
Q 42.625 4.78125 38.28125 2.390625 
Q 33.9375 0 27.875 0 
Q 17.828125 0 11.671875 7.65625 
Q 5.515625 15.328125 5.515625 27.984375 
Q 5.515625 40.671875 11.671875 48.328125 
Q 17.828125 56 27.875 56 
Q 33.9375 56 38.28125 53.609375 
Q 42.625 51.21875 45.40625 46.390625 
L 45.40625 54.6875 
L 54.390625 54.6875 
z
" id="BitstreamVeraSans-Roman-67"/>
      <path d="M 18.3125 70.21875 
L 18.3125 54.6875 
L 36.8125 54.6875 
L 36.8125 47.703125 
L 18.3125 47.703125 
L 18.3125 18.015625 
Q 18.3125 11.328125 20.140625 9.421875 
Q 21.96875 7.515625 27.59375 7.515625 
L 36.8125 7.515625 
L 36.8125 0 
L 27.59375 0 
Q 17.1875 0 13.234375 3.875 
Q 9.28125 7.765625 9.28125 18.015625 
L 9.28125 47.703125 
L 2.6875 47.703125 
L 2.6875 54.6875 
L 9.28125 54.6875 
L 9.28125 70.21875 
z
" id="BitstreamVeraSans-Roman-74"/>
     </defs>
     <g transform="translate(345.159978278 146.332682916)rotate(-325.36470771)scale(0.12 -0.12)">
      <use xlink:href="#BitstreamVeraSans-Roman-7b"/>
      <use x="63.623046875" xlink:href="#BitstreamVeraSans-Roman-27"/>
      <use x="91.11328125" xlink:href="#BitstreamVeraSans-Roman-77"/>
      <use x="172.900390625" xlink:href="#BitstreamVeraSans-Roman-65"/>
      <use x="234.423828125" xlink:href="#BitstreamVeraSans-Roman-69"/>
      <use x="262.20703125" xlink:href="#BitstreamVeraSans-Roman-67"/>
      <use x="325.68359375" xlink:href="#BitstreamVeraSans-Roman-68"/>
      <use x="389.0625" xlink:href="#BitstreamVeraSans-Roman-74"/>
      <use x="428.271484375" xlink:href="#BitstreamVeraSans-Roman-27"/>
      <use x="455.76171875" xlink:href="#BitstreamVeraSans-Roman-3a"/>
      <use x="489.453125" xlink:href="#BitstreamVeraSans-Roman-20"/>
      <use x="521.240234375" xlink:href="#BitstreamVeraSans-Roman-35"/>
      <use x="584.86328125" xlink:href="#BitstreamVeraSans-Roman-39"/>
      <use x="648.486328125" xlink:href="#BitstreamVeraSans-Roman-7d"/>
     </g>
    </g>
   </g>
   <g id="text_2">
    <g id="patch_3">
     <path clip-path="url(#p18de5f27bd)" d="M 186.306396 166.544358 
L 266.011181 135.737486 
Q 269.369086 134.439614 268.071215 131.081709 
L 263.884227 120.248965 
Q 262.586356 116.89106 259.22845 118.188931 
L 179.523665 148.995804 
Q 176.16576 150.293675 177.463631 153.651581 
L 181.650619 164.484324 
Q 182.94849 167.842229 186.306396 166.544358 
z
" style="fill:#ffffff;stroke:#ffffff;stroke-linejoin:miter;"/>
    </g>
    <g clip-path="url(#p18de5f27bd)">
     <!-- {'weight': 73} -->
     <defs>
      <path d="M 40.578125 39.3125 
Q 47.65625 37.796875 51.625 33 
Q 55.609375 28.21875 55.609375 21.1875 
Q 55.609375 10.40625 48.1875 4.484375 
Q 40.765625 -1.421875 27.09375 -1.421875 
Q 22.515625 -1.421875 17.65625 -0.515625 
Q 12.796875 0.390625 7.625 2.203125 
L 7.625 11.71875 
Q 11.71875 9.328125 16.59375 8.109375 
Q 21.484375 6.890625 26.8125 6.890625 
Q 36.078125 6.890625 40.9375 10.546875 
Q 45.796875 14.203125 45.796875 21.1875 
Q 45.796875 27.640625 41.28125 31.265625 
Q 36.765625 34.90625 28.71875 34.90625 
L 20.21875 34.90625 
L 20.21875 43.015625 
L 29.109375 43.015625 
Q 36.375 43.015625 40.234375 45.921875 
Q 44.09375 48.828125 44.09375 54.296875 
Q 44.09375 59.90625 40.109375 62.90625 
Q 36.140625 65.921875 28.71875 65.921875 
Q 24.65625 65.921875 20.015625 65.03125 
Q 15.375 64.15625 9.8125 62.3125 
L 9.8125 71.09375 
Q 15.4375 72.65625 20.34375 73.4375 
Q 25.25 74.21875 29.59375 74.21875 
Q 40.828125 74.21875 47.359375 69.109375 
Q 53.90625 64.015625 53.90625 55.328125 
Q 53.90625 49.265625 50.4375 45.09375 
Q 46.96875 40.921875 40.578125 39.3125 
" id="BitstreamVeraSans-Roman-33"/>
      <path d="M 8.203125 72.90625 
L 55.078125 72.90625 
L 55.078125 68.703125 
L 28.609375 0 
L 18.3125 0 
L 43.21875 64.59375 
L 8.203125 64.59375 
z
" id="BitstreamVeraSans-Roman-37"/>
     </defs>
     <g transform="translate(184.108801726 160.858654216)rotate(-21.1321255035)scale(0.12 -0.12)">
      <use xlink:href="#BitstreamVeraSans-Roman-7b"/>
      <use x="63.623046875" xlink:href="#BitstreamVeraSans-Roman-27"/>
      <use x="91.11328125" xlink:href="#BitstreamVeraSans-Roman-77"/>
      <use x="172.900390625" xlink:href="#BitstreamVeraSans-Roman-65"/>
      <use x="234.423828125" xlink:href="#BitstreamVeraSans-Roman-69"/>
      <use x="262.20703125" xlink:href="#BitstreamVeraSans-Roman-67"/>
      <use x="325.68359375" xlink:href="#BitstreamVeraSans-Roman-68"/>
      <use x="389.0625" xlink:href="#BitstreamVeraSans-Roman-74"/>
      <use x="428.271484375" xlink:href="#BitstreamVeraSans-Roman-27"/>
      <use x="455.76171875" xlink:href="#BitstreamVeraSans-Roman-3a"/>
      <use x="489.453125" xlink:href="#BitstreamVeraSans-Roman-20"/>
      <use x="521.240234375" xlink:href="#BitstreamVeraSans-Roman-37"/>
      <use x="584.86328125" xlink:href="#BitstreamVeraSans-Roman-33"/>
      <use x="648.486328125" xlink:href="#BitstreamVeraSans-Roman-7d"/>
     </g>
    </g>
   </g>
   <g id="text_3">
    <g id="patch_4">
     <path clip-path="url(#p18de5f27bd)" d="M 167.878631 256.03484 
L 238.237098 304.528162 
Q 241.201249 306.571151 243.244238 303.606999 
L 249.835006 294.044522 
Q 251.877995 291.08037 248.913843 289.037381 
L 178.555376 240.544059 
Q 175.591224 238.50107 173.548235 241.465222 
L 166.957468 251.027699 
Q 164.914479 253.991851 167.878631 256.03484 
z
" style="fill:#ffffff;stroke:#ffffff;stroke-linejoin:miter;"/>
    </g>
    <g clip-path="url(#p18de5f27bd)">
     <!-- {'weight': 72} -->
     <defs>
      <path d="M 19.1875 8.296875 
L 53.609375 8.296875 
L 53.609375 0 
L 7.328125 0 
L 7.328125 8.296875 
Q 12.9375 14.109375 22.625 23.890625 
Q 32.328125 33.6875 34.8125 36.53125 
Q 39.546875 41.84375 41.421875 45.53125 
Q 43.3125 49.21875 43.3125 52.78125 
Q 43.3125 58.59375 39.234375 62.25 
Q 35.15625 65.921875 28.609375 65.921875 
Q 23.96875 65.921875 18.8125 64.3125 
Q 13.671875 62.703125 7.8125 59.421875 
L 7.8125 69.390625 
Q 13.765625 71.78125 18.9375 73 
Q 24.125 74.21875 28.421875 74.21875 
Q 39.75 74.21875 46.484375 68.546875 
Q 53.21875 62.890625 53.21875 53.421875 
Q 53.21875 48.921875 51.53125 44.890625 
Q 49.859375 40.875 45.40625 35.40625 
Q 44.1875 33.984375 37.640625 27.21875 
Q 31.109375 20.453125 19.1875 8.296875 
" id="BitstreamVeraSans-Roman-32"/>
     </defs>
     <g transform="translate(171.337879249 251.015851867)rotate(-325.424137247)scale(0.12 -0.12)">
      <use xlink:href="#BitstreamVeraSans-Roman-7b"/>
      <use x="63.623046875" xlink:href="#BitstreamVeraSans-Roman-27"/>
      <use x="91.11328125" xlink:href="#BitstreamVeraSans-Roman-77"/>
      <use x="172.900390625" xlink:href="#BitstreamVeraSans-Roman-65"/>
      <use x="234.423828125" xlink:href="#BitstreamVeraSans-Roman-69"/>
      <use x="262.20703125" xlink:href="#BitstreamVeraSans-Roman-67"/>
      <use x="325.68359375" xlink:href="#BitstreamVeraSans-Roman-68"/>
      <use x="389.0625" xlink:href="#BitstreamVeraSans-Roman-74"/>
      <use x="428.271484375" xlink:href="#BitstreamVeraSans-Roman-27"/>
      <use x="455.76171875" xlink:href="#BitstreamVeraSans-Roman-3a"/>
      <use x="489.453125" xlink:href="#BitstreamVeraSans-Roman-20"/>
      <use x="521.240234375" xlink:href="#BitstreamVeraSans-Roman-37"/>
      <use x="584.86328125" xlink:href="#BitstreamVeraSans-Roman-32"/>
      <use x="648.486328125" xlink:href="#BitstreamVeraSans-Roman-7d"/>
     </g>
    </g>
   </g>
   <g id="text_4">
    <g id="patch_5">
     <path clip-path="url(#p18de5f27bd)" d="M 331.387027 322.273567 
L 411.062177 291.390132 
Q 414.418834 290.089035 413.117737 286.732378 
L 408.920344 275.903662 
Q 407.619247 272.547005 404.26259 273.848102 
L 324.58744 304.731538 
Q 321.230783 306.032635 322.53188 309.389292 
L 326.729273 320.218007 
Q 328.03037 323.574664 331.387027 322.273567 
z
" style="fill:#ffffff;stroke:#ffffff;stroke-linejoin:miter;"/>
    </g>
    <g clip-path="url(#p18de5f27bd)">
     <!-- {'weight': 71} -->
     <defs>
      <path d="M 12.40625 8.296875 
L 28.515625 8.296875 
L 28.515625 63.921875 
L 10.984375 60.40625 
L 10.984375 69.390625 
L 28.421875 72.90625 
L 38.28125 72.90625 
L 38.28125 8.296875 
L 54.390625 8.296875 
L 54.390625 0 
L 12.40625 0 
z
" id="BitstreamVeraSans-Roman-31"/>
     </defs>
     <g transform="translate(329.18397145 316.589977508)rotate(-21.1871731384)scale(0.12 -0.12)">
      <use xlink:href="#BitstreamVeraSans-Roman-7b"/>
      <use x="63.623046875" xlink:href="#BitstreamVeraSans-Roman-27"/>
      <use x="91.11328125" xlink:href="#BitstreamVeraSans-Roman-77"/>
      <use x="172.900390625" xlink:href="#BitstreamVeraSans-Roman-65"/>
      <use x="234.423828125" xlink:href="#BitstreamVeraSans-Roman-69"/>
      <use x="262.20703125" xlink:href="#BitstreamVeraSans-Roman-67"/>
      <use x="325.68359375" xlink:href="#BitstreamVeraSans-Roman-68"/>
      <use x="389.0625" xlink:href="#BitstreamVeraSans-Roman-74"/>
      <use x="428.271484375" xlink:href="#BitstreamVeraSans-Roman-27"/>
      <use x="455.76171875" xlink:href="#BitstreamVeraSans-Roman-3a"/>
      <use x="489.453125" xlink:href="#BitstreamVeraSans-Roman-20"/>
      <use x="521.240234375" xlink:href="#BitstreamVeraSans-Roman-37"/>
      <use x="584.86328125" xlink:href="#BitstreamVeraSans-Roman-31"/>
      <use x="648.486328125" xlink:href="#BitstreamVeraSans-Roman-7d"/>
     </g>
    </g>
   </g>
   <g id="PathCollection_1">
    <defs>
     <path d="M 0 13.228757 
C 3.508307 13.228757 6.873396 11.834891 9.354143 9.354143 
C 11.834891 6.873396 13.228757 3.508307 13.228757 0 
C 13.228757 -3.508307 11.834891 -6.873396 9.354143 -9.354143 
C 6.873396 -11.834891 3.508307 -13.228757 0 -13.228757 
C -3.508307 -13.228757 -6.873396 -11.834891 -9.354143 -9.354143 
C -11.834891 -6.873396 -13.228757 -3.508307 -13.228757 0 
C -13.228757 3.508307 -11.834891 6.873396 -9.354143 9.354143 
C -6.873396 11.834891 -3.508307 13.228757 0 13.228757 
z
" id="m72e1deeb5b" style="stroke:#000000;"/>
    </defs>
    <g clip-path="url(#p18de5f27bd)">
     <use style="fill:#0000ff;stroke:#000000;" x="309.763417132" xlink:href="#m72e1deeb5b" y="90.0610678355"/>
     <use style="fill:#0000ff;stroke:#000000;" x="454.628571429" xlink:href="#m72e1deeb5b" y="245.721669293"/>
     <use style="fill:#0000ff;stroke:#000000;" x="135.771428571" xlink:href="#m72e1deeb5b" y="194.672221296"/>
     <use style="fill:#0000ff;stroke:#000000;" x="281.021045185" xlink:href="#m72e1deeb5b" y="350.4"/>
    </g>
   </g>
   <g id="text_5">
    <g clip-path="url(#p18de5f27bd)">
     <!-- 1 -->
     <g transform="translate(303.400917132 95.5798178355)scale(0.2 -0.2)">
      <use xlink:href="#BitstreamVeraSans-Roman-31"/>
     </g>
    </g>
   </g>
   <g id="text_6">
    <g clip-path="url(#p18de5f27bd)">
     <!-- 2 -->
     <g transform="translate(448.266071429 251.240419293)scale(0.2 -0.2)">
      <use xlink:href="#BitstreamVeraSans-Roman-32"/>
     </g>
    </g>
   </g>
   <g id="text_7">
    <g clip-path="url(#p18de5f27bd)">
     <!-- 3 -->
     <g transform="translate(129.408928571 200.190971296)scale(0.2 -0.2)">
      <use xlink:href="#BitstreamVeraSans-Roman-33"/>
     </g>
    </g>
   </g>
   <g id="text_8">
    <g clip-path="url(#p18de5f27bd)">
     <!-- 4 -->
     <defs>
      <path d="M 37.796875 64.3125 
L 12.890625 25.390625 
L 37.796875 25.390625 
z
M 35.203125 72.90625 
L 47.609375 72.90625 
L 47.609375 25.390625 
L 58.015625 25.390625 
L 58.015625 17.1875 
L 47.609375 17.1875 
L 47.609375 0 
L 37.796875 0 
L 37.796875 17.1875 
L 4.890625 17.1875 
L 4.890625 26.703125 
z
" id="BitstreamVeraSans-Roman-34"/>
     </defs>
     <g transform="translate(274.658545185 355.91875)scale(0.2 -0.2)">
      <use xlink:href="#BitstreamVeraSans-Roman-34"/>
     </g>
    </g>
   </g>
  </g>
 </g>
 <defs>
  <clipPath id="p18de5f27bd">
   <rect height="345.6" width="446.4" x="72.0" y="43.2"/>
  </clipPath>
 </defs>
</svg>
